<?xml version="1.0" encoding="UTF-8"?>
<svg width="500" height="115" version="1.1" viewBox="0 0 400 92.1" xmlns="http://www.w3.org/2000/svg" xmlns:dc="http://purl.org/dc/elements/1.1/" xmlns:rdf="http://www.w3.org/1999/02/22-rdf-syntax-ns#">
<title>Go-Toubun no Hanayome logo</title>
 <metadata>
  <rdf:RDF>
    <dc:format>image/svg+xml</dc:format>
    <dc:type rdf:resource="http://purl.org/dc/dcmitype/StillImage"/>
    <dc:title/>
  </rdf:RDF>
 </metadata>
 <g transform="matrix(.703 0 0 .703 -2.99e-6 8.91e-7)">
  <path d="m334 46.1c-0.793 0.0078-1.61 0.0312-2.45 0.0703-10.6 0.516-17.8 3.47-25.2 10.4-10.8 10.1-14.3 24.7-8.7 36.8 1.71 3.75 3.49 5.97 5.65 7.09 2.93 1.51 3.38 1.5 6.82-0.184 4.34-2.13 10-9.23 14.6-18.3 4.65-9.15 5.96-15.6 5.13-25.1l-0.688-7.91h5.11c8.96 0 16 4.36 20.3 12.5 3.21 6.14 3.09 20.3-0.234 26.8-3.41 6.69-11.4 13.9-19.8 17.8-3.94 1.85-7.18 3.66-7.18 4.02-0.0391 1.14 13.3-2.75 18.5-5.42 16.6-8.45 23.2-31.3 13.3-46.2-5.85-8.83-13.3-12.6-25.2-12.4zm-8.66 2.96c1.57-0.043 2.09 0.984 2.2 3.18 0.703 14-4.12 27.3-13.6 37.5-6.89 7.45-13.6 1.69-13.6-11.7 0-11 7.65-21.9 19.1-27 2.82-1.28 4.69-1.96 5.91-1.99z"/>
  <path d="m17.9 111c-0.523-0.52-0.949-1.25-0.949-1.61 0-0.363 6.23-0.438 13.9-0.164 8.41 0.301 14.1 0.117 14.5-0.469 0.684-1.11 5.46-34.5 5.89-41.3l0.293-4.5-7.95-0.297c-4.38-0.164-8.61-0.84-9.41-1.5-1.17-0.961 0.535-1.3 8.45-1.71l9.91-0.5 1.77-11.9c0.969-6.55 1.62-12 1.45-12.2-0.176-0.172-6.32 0.602-13.7 1.72-11.3 1.72-13.6 1.83-14.7 0.668-1.16-1.16 0.363-1.55 9.89-2.59 11.5-1.25 46.5-5.92 50.4-6.74 1.24-0.254 3.16-2.18 4.43-4.45 1.23-2.2 2.69-4 3.23-4 1.86 0 10.7 6.26 10.4 7.32-0.195 0.582-9.54 2.35-20.8 3.93-11.2 1.57-20.6 3.02-20.8 3.21-0.406 0.406-2.34 13.9-5.23 36.5-1.16 9.08-2.73 21-3.5 26.5-1.07 7.63-1.12 10.3-0.223 11.4 0.965 1.16 5.08 1.34 23.1 1l21.9-0.406 3.21-3.83c2.68-3.2 3.52-3.66 5.11-2.79 2.52 1.37 8.9 8.04 8.28 8.66-0.961 0.961-98 1.05-98.9 0.0937z"/>
  <path d="m86.8 87.3-0.273-17.8-11.8-0.281c-14.6-0.348-14.9-2.22-0.375-2.22 7.65 0 10.8-0.391 12.4-1.56 2.57-1.8 5.16-1.25 7.76 1.61 1.39 1.53 1.54 2.27 0.633 3.18-0.809 0.809-1.18 6.43-1.18 18v16.8h-6.96l-0.27-17.8z"/>
  <path d="m259 109c-1.03-1.81-3.07-3.34-5.5-4.12-4.06-1.3-7.51-3.68-3.86-2.66 1.1 0.305 4.03 0.816 6.5 1.14 6.24 0.812 9.11-0.906 10.7-6.41 1.38-4.77 3.4-29.6 2.59-31.8-0.387-1.01-5.37-1.3-22.3-1.3-20.6 0-25-0.328-25-1.86 0-0.352 9.75-0.504 21.7-0.336 20.8 0.293 21.8 0.219 24.5-1.8 3.15-2.33 5.54-2.04 8.29 1 1.45 1.59 1.57 2.45 0.684 4.72-0.594 1.53-1.36 7.28-1.71 12.8-1.37 21.7-3.57 28.7-9.91 31.8-4.7 2.24-4.78 2.23-6.7-1.16z"/>
  <path d="m212 108c-8.39-4.24-11.7-12.6-8.02-20.2 4.96-10.2 19.7-11.5 23.7-1.94 1.83 4.37 0.488 9.32-3.34 12.3-4.43 3.48-13.3 2.17-13.3-1.96 0-2.37 1.16-3.16 2.98-2.04 1.1 0.68 1.14 1.16 0.176 2.32-1.86 2.24 3 3.07 7.34 1.25 4.08-1.7 5.93-5.48 5.03-10.3-0.762-4.07-3.87-6.29-8.8-6.29-7.39 0-13.7 5.79-13.7 12.5 0.0195 4.42 3.98 10.7 8 12.7 12.5 6.3 25-6.61 27.7-28.8 0.727-5.83 0.82-5.98 4-6.29 4.29-0.414 4.63 0.809 2.76 9.86-3.16 15.2-9.86 24.5-19.9 27.5-6.7 2-9.38 1.86-14.6-0.777z"/>
  <path d="m206 70.4c0-0.379 2-2.45 4.44-4.59 8.36-7.36 16.8-20.5 21.6-33.6 1.34-3.64 2.13-3.63 7.7 0.109 3.18 2.14 3.21 2.23 1.24 3.57-1.12 0.758-4.14 4.58-6.73 8.5-5.54 8.38-18.1 21.2-24.1 24.4-2.31 1.27-4.2 2-4.2 1.62z"/>
  <path d="m279 58.9c-7.35-6.87-12.3-14-14.8-21.4l-1.72-5.09-7.74-0.5c-5.38-0.348-7.89-0.926-8.2-1.89-0.367-1.11 0.613-1.29 4.88-0.875 4.9 0.469 5.57 0.273 8.29-2.45 2.63-2.62 3.21-2.82 5.27-1.72 1.27 0.68 3.29 2.28 4.48 3.55l2.18 2.32-2.65 1.01c-3.48 1.32-3.41 4.09 0.238 9.38 5.2 7.53 17.8 15.6 24.4 15.7 1.51 0.0039 2.75 0.457 2.75 1.01 0 0.551-0.434 1-0.965 1s-2.5 1.35-4.38 3c-1.88 1.65-3.9 3-4.5 3-0.598 0-3.99-2.72-7.54-6.04z"/>
  <path d="m383 108c-0.277-0.277-0.293-8.6-0.0312-18.5 0.258-9.9 0.125-18-0.297-18-0.422 0-3.45 2.93-6.72 6.5-3.28 3.57-6.36 6.5-6.87 6.5-0.5 0 1.16-2.81 3.69-6.24 6.27-8.52 12.3-19 13-22.7 0.719-3.59 1.7-3.75 6.24-0.984 3.36 2.05 3.36 2.07 1.26 3.55-3.26 2.28-4.4 5.02-3.11 7.45 0.699 1.3 0.762 2.5 0.168 3.25-0.516 0.652-1.18 9.46-1.48 19.6-0.406 13.8-0.875 18.6-1.88 19.2-1.52 0.961-3.26 1.12-4.01 0.375z"/>
  <path d="m402 50.2c-0.0859 0.0039-0.145 0.0195-0.168 0.043-0.191 0.195 0.105 2 0.664 4.02 0.809 2.94 0.672 4.32-0.688 6.95-2.22 4.29-2.34 13.5-0.199 16.8 1.15 1.79 1.73 5.66 2.04 13.5 0.234 6.05 0.961 12 1.62 13.2 0.664 1.23 2.66 2.67 4.43 3.22 1.77 0.543 9.3 0.871 16.7 0.727 18.3-0.352 24.1-3.05 19.5-9.11-0.809-1.06-1.47-3.86-1.47-6.19 0-6.11-1.4-6.09-3.33 0.0234-2.62 8.32-3.95 9.06-17.1 9.44-9.23 0.273-11.4 0.0547-12.5-1.23-0.719-0.875-1.53-5.3-1.82-9.97l-0.52-8.41 5.17-1.1c9.46-2.03 17.7-7.33 21.8-14 2.89-4.68 2.83-6.3-0.328-10.1-2.09-2.48-3.36-3.08-6.54-3.08-11.1 0-20.6 11.9-13.3 16.6 2.38 1.56 2.81 1.56 5.97 0.0547 3.8-1.81 5.47-5.77 3.46-8.2-1.42-1.71-4.99-2.01-4.99-0.418 0 0.598 0.848 0.797 1.92 0.457 3.1-0.984 3.94 3.36 1.1 5.66-4.69 3.8-10.1 0.867-8.12-4.37 3.41-8.83 20.1-11.9 20.1-3.67 0 6.11-12.1 15.3-22.8 17.2l-3.3 0.609 0.328-11.7c0.176-6.46 0.68-12.5 1.11-13.4 0.641-1.3-0.113-1.84-3.89-2.79-2.26-0.566-4.27-0.922-4.87-0.871zm0.77 12.5c0.434 0.0703 0.633 2.16 0.641 6.52 8e-3 4.27-0.16 7.75-0.375 7.75-1.71 0-2.21-11.5-0.609-14 0.129-0.195 0.238-0.285 0.344-0.27z"/>
  <path d="m388 49.3c-0.367-0.367-0.672-2.5-0.684-4.75-0.0234-6.88-0.32-7.02-14.6-7.05-9.62-0.0234-12.8-0.355-13.2-1.35-0.344-1.02 1.12-1.29 6.41-1.18 3.77 0.082 9.93 0.113 13.7 0.0703l6.84-0.0742-0.34-6-0.34-6 3.5 0.0156c4.78 0.0234 6.79 1.34 5.12 3.34-0.688 0.832-1.11 3-0.934 4.83 0.281 2.93 0.695 3.35 3.57 3.63 3.68 0.355 4.48 2.19 0.953 2.19-3.38 0-4.7 1.87-4.7 6.66 0 3.19-0.484 4.52-1.93 5.3-2.28 1.22-2.52 1.24-3.4 0.367z"/>
  <path d="m414 49c-0.352-0.57-0.336-2.84 0.0351-5.04 0.84-4.98-0.598-6.93-5.14-6.93-1.86 0-3.38-0.453-3.38-1 0-0.551 1.52-1 3.38-1 4.77 0 6.02-1.95 5.21-8.1l-0.676-5.08 3.3 0.707c6.18 1.33 8.59 3.57 5.23 4.86-1.07 0.414-1.46 1.62-1.25 3.86 0.316 3.25 0.324 3.26 6.48 3.55 5.61 0.27 6.46 0.0312 9.53-2.66l3.36-2.95 3.97 2.4c6.79 4.1 5.45 4.87-9.53 5.42l-13.5 0.5-0.316 4.97c-0.172 2.73-0.789 5.55-1.37 6.25-1.27 1.54-4.45 1.68-5.34 0.238z"/>
  <path d="m454 110c0-0.387 1.36-2.25 3.01-4.13s4.55-6.49 6.43-10.2l3.42-6.8-5.18-3.86c-2.85-2.12-5.37-3.99-5.6-4.16-0.227-0.16-0.164-0.547 0.145-0.855 0.309-0.305 3.18 0.125 6.38 0.961 3.2 0.836 5.91 1.43 6.02 1.31 0.77-0.789 3.47-17 4.02-24.1l0.66-8.61h-4.57c-5.32 0-5.21-0.25-6.31 14.5-0.758 10.1-1.71 13.5-3.77 13.5-3.04 0-3.37-2.4-1.91-13.8 1.63-12.8 1.38-14.5-2.04-13.7-1.5 0.375-2.82 0.0234-3.64-0.977-1.14-1.38-0.812-1.56 2.71-1.56 3.95 0 4.02-0.0586 4.6-4.25 0.324-2.34 0.887-7.74 1.25-12 0.703-8.3 0.906-8.51 6.23-6.65 3.6 1.25 3.73 1.59 1.58 3.98-1.71 1.89-4.02 14.9-3.08 17.4 0.867 2.26 6.21 1.91 8.51-0.555l1.94-2.08 4.1 2.71c2.26 1.49 4.1 2.92 4.1 3.17 0 0.254-0.902 1.21-2.01 2.12-1.48 1.23-2.16 3.35-2.59 8.16-0.316 3.58-1.46 10.8-2.55 16-1.45 7-1.66 9.58-0.789 9.88 2.13 0.711 4.93 4.11 4.93 5.99 0 1.01-0.934 2.69-2.08 3.72-1.93 1.75-2.26 1.77-4.86 0.281l-2.79-1.6-4.12 5.27c-3.92 5.02-12.2 12.4-12.2 10.9z"/>
  <path d="m499 106c-1.45-1.9-3.54-3.74-4.64-4.09-3.8-1.2-1.99-2 3.81-1.67 4.39 0.25 6.14-0.0586 7.14-1.26 1.72-2.07 2.76-15.6 1.21-15.6-0.613 0-3.95 2.81-7.41 6.25-5.79 5.74-21.1 15.7-22.3 14.5-0.281-0.281 1.64-2.1 4.29-4.04 8.89-6.54 24.3-23.7 24.3-27 0-3.29-2.18-2.7-7.75 2.08-6.34 5.43-13.4 10.4-14 9.77-0.211-0.207 1.88-2.65 4.64-5.43 6.95-6.98 12.4-15.2 11.1-16.7-0.766-0.922-3.11 0.102-9.63 4.19-8.18 5.14-12.7 6.51-7.29 2.23 6.68-5.33 15.1-13.2 16.1-14.9 1-1.88 0.773-1.98-4.02-1.76-2.8 0.129-5.55-0.23-6.11-0.793-1.04-1.04 13.6-2.34 26.4-2.34 5.54 0 6.22-0.258 9.28-3.5 1.82-1.92 3.58-3.5 3.93-3.5 0.797 0 6.51 6.23 6.51 7.11 0 0.359-5.18 0.98-11.5 1.38-7.6 0.473-11.5 1.11-11.5 1.87 0.0234 5.11 7.19 21.1 12.1 27 1.77 2.14 5.89 5.85 9.14 8.25 4.79 3.52 6.73 4.36 10.2 4.36 5.68 0 7.78-2.32 7.36-8.14-0.391-5.41-3.59-7.53-8.69-5.75-6.04 2.1-4.96 9.3 1.29 8.7 2.53-0.25 3.04-0.707 2.85-2.55-0.262-2.47 1.21-3.07 2.06-0.844 1.49 3.88-6.08 6.7-9.77 3.64-2.47-2.05-1.93-6.61 1.08-8.97 3.15-2.48 7.08-2.66 10.2-0.484 1.97 1.38 2.23 2.32 1.97 7.15-0.25 4.66-0.727 5.88-2.93 7.52-1.45 1.08-4.71 2.2-7.23 2.48-2.53 0.285-5.11 1.14-5.74 1.89-1.95 2.35-3.57 1.56-8.8-4.31-6.66-7.48-12.9-20.3-14.9-30.7-0.852-4.47-1.93-8.56-2.4-9.09-0.512-0.578-2.59 0.754-5.24 3.36l-4.39 4.31 3.75 3.76c2.07 2.07 5.03 6.41 6.59 9.64 2.48 5.16 2.84 7.06 2.87 15.4 0.043 9.87-1.07 13.6-5.07 17.1-3.75 3.3-5.89 3.16-8.71-0.543z"/>
  <path d="m482 46.3c-1.02-1.02-0.793-4.81 0.367-5.96 0.566-0.57 1.9-3.25 2.96-5.95 1.75-4.43 2-4.68 2.62-2.53l0.688 2.38 17.1-0.711c14.9-0.621 17.4-0.961 19.2-2.63 2.8-2.6 3.52-2.46 7.35 1.5 3.71 3.82 3.39 5.59-0.996 5.59-1.63 0-4.82 1.17-7.09 2.61-3.23 2.04-3.98 2.24-3.47 0.906 0.355-0.934 0.934-2.83 1.28-4.22l0.633-2.52-15.9 0.727c-8.74 0.402-16.2 0.93-16.6 1.17-0.41 0.242-0.75 1.92-0.75 3.73 0 4.57-4.8 8.46-7.33 5.93z"/>
  <path d="m521 67.8c0.453-6.9 2.59-9.77 7.25-9.77 3.41 0 4.8 1.11 5.91 4.73 1.01 3.29-3.29 7.27-7.84 7.27-2.24 0-3.89 0.629-4.6 1.75-0.855 1.36-1.02 0.477-0.715-3.98z" style="fill:#97ca00"/>
  <path d="m503 29.4c-1.84-4.04-1.39-8.1 1.09-9.84 2.8-1.97 4.23-1.96 6.2 0.0117 2.68 2.68 1.89 5.84-2.29 9.2l-3.87 3.11z" style="fill:#ffca00"/>
  <path d="m168 111c-0.359-1.13-1.85-2.57-3.32-3.2-2.56-1.09-2.46-1.16 2.34-1.69l5-0.551-0.234-8.43c-0.129-4.64-0.578-8.78-1-9.2-0.422-0.418-8.42-0.34-17.8 0.168-27.8 1.52-33.8 1.57-34.2 0.324-0.273-0.789 2.72-1.17 9.9-1.27 13.1-0.176 40.8-1.97 42-2.73 0.512-0.316 0.629-2.36 0.262-4.54l-0.672-3.96 4.35 0.312c3.18 0.23 4.29 0.715 4.14 1.81-0.113 0.824-0.336 2.4-0.5 3.5-0.242 1.67 0.363 2.05 3.68 2.32 3.42 0.277 4.32-0.105 6.5-2.78l2.54-3.11 4.25 2.75c2.34 1.52 4.25 3.05 4.25 3.41 0 1.11-4.19 1.87-10.5 1.89-11.1 0.0508-10.9-0.246-10.1 11.2l0.68 9.88-2.97 2.97c-3.54 3.53-7.67 3.97-8.64 0.914z"/>
  <path d="m112 81.1c-0.375-0.609 0.328-1.28 1.63-1.55 1.26-0.262 9.85-1.93 19.1-3.7 9.24-1.77 17.4-3.71 18.2-4.3 1.14-0.863 1.22-1.96 0.398-5.57-0.562-2.48-1.39-4.86-1.82-5.31-0.441-0.445-6.6 0.41-13.7 1.9-15.1 3.18-16.5 3.31-17.1 1.66-0.27-0.781 0.492-1.25 2.01-1.25 1.35 0 7.97-1.12 14.7-2.5s12.5-2.5 12.8-2.5c0.277 0 0.207-2.5-0.152-5.56l-0.652-5.56 8.53 0.617-0.328 3.75c-0.215 2.45 0.133 3.93 1 4.25 0.73 0.277 5.15-0.312 9.83-1.32 7.54-1.62 8.73-2.18 10.5-4.97 2.3-3.63 2.8-3.72 7.43-1.42 4.41 2.19 4.91 3.88 1.38 4.56-13.6 2.64-28 5.98-28.7 6.65-0.488 0.465-0.336 3.04 0.352 5.91 1.45 6.04 0.883 5.95 17 2.64 11.2-2.31 12.4-2.91 15-7.42 0.531-0.926 1.71-1.15 3.68-0.703 3.88 0.883 7.05 3.32 5.84 4.48-0.52 0.504-18.9 4.57-40.9 9.05s-41.2 8.38-42.6 8.68c-1.45 0.305-2.93 0.0703-3.29-0.52z"/>
  <path d="m107 53c-4e-3 -0.277 2.2-4.89 4.9-10.3 2.7-5.37 5.21-11.6 5.58-13.8 0.371-2.2 1.2-3.98 1.84-3.98 1.88 0.0078 8.66 2.04 8.66 2.6 0 0.281-1.43 2.29-3.17 4.45s-2.91 4.2-2.59 4.52c1.43 1.44 10-0.938 12.3-3.4 2.37-2.56 2.41-2.57 6-0.855 6.71 3.2 4.23 4.37-13 6.14l-7 0.719-6.74 7.16c-3.7 3.94-6.74 6.94-6.74 6.66z"/>
  <path d="m142 106c-0.855-1.23-1.56-3.7-1.56-5.5 0-2.25-0.473-3.28-1.5-3.28-0.824 0-1.5-0.453-1.5-1 0-2.22 10.7-0.148 13.5 2.61 0.844 0.844 1.54 2.55 1.54 3.8 0 5.16-7.5 7.57-10.4 3.36z" style="fill:#f00"/>
  <path d="m130 52.8c-0.66-0.66-1.2-2.89-1.2-4.95 0-2.48-0.59-4.12-1.75-4.86-1.37-0.867-0.609-1.02 3.51-0.695 8 0.621 12 5.84 7.67 10.1-1.86 1.86-6.54 2.07-8.23 0.371z" style="fill:#976394"/>
  <path d="m166 32-2.76 3.12c1.45-1.27 1.62-1 2.89 1.04 0.812 1.29 1.79 4.14 2.18 6.34 0.387 2.2 1.17 4.56 1.73 5.25 1.36 1.65 2.32 1.58 4.22-0.32 2.28-2.29 1.98-3.6-1.89-8.12-1.91-2.23-3.18-4.34-2.84-4.68 0.348-0.344 5.73-0.629 12-0.629 6.23 0 11.3-0.391 11.3-0.863 0-1.1-7.21-6.14-8.78-6.14-0.645 0-1.91 1.12-2.81 2.5-1.48 2.26-2.29 2.5-8.44 2.5z"/>
  <path d="m163 35.1c-0.207 0.184-0.445 0.402-0.715 0.648-3.15 2.88-7.88 5.06-12.6 5.81-4.66 0.746-5.44-0.547-1.57-2.61 1.55-0.828 3.71-3.9 5.58-7.92 1.68-3.61 3.59-7.69 4.25-9.07 0.906-1.89 2.11-2.58 4.91-2.81 3.16-0.266 3.89 0.0703 4.88 2.24 0.926 2.03 0.844 3.36-0.414 6.56l-1.57 4.01" style="fill:#0097ff"/>
 </g>
</svg>
